# ProBuilder 5.0.6
# https://unity3d.com/unity/features/worldbuilding/probuilder
# 12/23/2022 4:21:48 PM

mtllib ./Stone_2.mtl
o Stone 2

g Stones
v -0.6411598 5.662355E-07 0.5975202
v -0.6421593 5.506876E-07 0.8695875
v -1.225056 2.324669 -0.1827576
v -0.6411591 2.032607 -0.1073493
v -0.2591675 3.673147E-07 -4.731773
v -0.1991737 3.466498E-07 -4.731773
v -0.5576553 2.272591 -3.792967
v -1.527088 2.071414 -3.890221
v -4.303685 3.695128E-07 0.2720672
v -3.413948 2.169628 -0.3520216
v -4.304685 5.143487E-07 -0.4257659
v -4.304688 2.302737 -0.1941078
v -4.153584 2.467084 -3.890221
v -4.303685 3.835268E-07 -4.083263
v -4.545467 2.355522 -3.896037
v -4.324586 4.469605E-07 -4.306007
v -5.109136 4.088254E-07 -0.6020677
v -5.109136 2.64101E-07 -0.779012
v -4.738487 2.400521 -1.298481
v -4.610329 2.576661 -0.6020676
v 0.382991 5.299788E-07 -0.1814917
v 0.382991 6.427304E-07 -0.04363836
v -2.798499E-07 1.927548 -0.5652598
v -0.2838175 2.172343 -1.349578
v -3.795387 2.788038 -0.7790118
v -0.8353766 2.663595 -1.401193
v -0.6421593 3.943757E-07 -0.7790121
v -4.303685 4.634997E-07 -0.7790121
v -4.906754 3.529767E-07 -3.500096
v -4.550861 2.609456 -2.627156
v -5.109136 4.218693E-07 -3.501096
v -4.64827 2.244122 -3.516954
v -0.1169587 1.995701 -2.534112
v 0.382991 1.998476E-07 -3.500096
v -0.1867866 2.419415 -3.501096
v 0.382991 3.276291E-07 -3.926862
v -0.6477201 2.788038 -3.500096
v -0.6421593 6.815612E-07 -3.925862
v -3.665016 2.788039 -3.408486
v -4.303685 6.220859E-07 -3.500096

vt -0.5998715 0.1563732
vt -0.8719407 0.1563732
vt 0.1782561 2.553949
vt 0.1049932 2.127804
vt 0.3260039 -1.813189
vt 0.2660161 -1.813514
vt 0.6111961 0.6472545
vt 1.581906 0.42942
vt -0.5455505 -0.3637853
vt -4.249964 -0.2847326
vt -3.432017 1.992214
vt -1.237571 2.160574
vt 0.2659031 0.0006258602
vt -0.4319307 0.0006260051
vt -0.2002728 2.303363
vt -0.3569107 2.170124
vt -0.4932382 -0.4079985
vt 0.8919262 1.710194
vt 3.485296 2.068382
vt 3.602942 -0.4079984
vt 4.124029 2.151785
vt 4.515858 2.039877
vt 4.291881 -0.3404175
vt 4.272666 -0.3229287
vt -0.6020669 -0.9710318
vt -0.7790111 -0.971032
vt -1.29848 1.456178
vt -0.6020669 1.653466
vt 0.05623835 -0.0535894
vt -0.0750673 -0.04823365
vt 0.5384113 1.889838
vt 1.371908 2.136649
vt -3.231467 2.411442
vt -3.500059 3.210257
vt -0.4770777 3.049511
vt -1.146114 2.096958
vt -0.6421593 0.8695875
vt -0.6421593 -0.7790121
vt -4.303685 -0.7790121
vt -4.303685 0.2720672
vt -0.1593775 -0.652225
vt -2.885063 -0.6681452
vt -2.061218 1.978282
vt -0.7196244 1.767661
vt -4.923988 0.02808749
vt -5.126371 0.02808756
vt -4.665589 2.272282
vt -4.563786 2.630418
vt 1.349578 2.176196
vt 2.534112 1.964302
vt 3.500096 -0.09306827
vt 0.1814917 -0.09306794
vt 2.529274 1.987374
vt 3.493631 2.42267
vt 3.93684 -0.05984787
vt 3.510279 -0.06287663
vt 1.404429 -2.667159
vt 1.646358 -1.49126
vt 2.38495 -1.54315
vt 2.326011 -3.653274
vt 0.382991 -0.1814917
vt 0.382991 -3.500096
vt -0.6421593 -3.925862
vt 3.455796 -3.814213
vt 3.585832 -1.21395
vt 4.554278 -1.681615
vt 4.352162 -3.024517
vt 4.412291 0.7451262
vt 1.792065 0.3098718
vt 0.887857 1.09819
vt 3.891625 1.223083
vt 0.6527517 -3.659317
vt 0.8401833 -1.556708
vt 3.800414 -0.9426917
vt 3.670043 -3.567546
vt -4.906754 -3.500096
vt -5.109136 -0.779012
vt -4.303685 -3.500096
vt -4.303685 -4.083263
vt -0.2591675 -4.731773
vt -2.504978 2.584911
vt -2.959716 0.2272514
vt -2.112232 2.47341
vt -1.970987 0.2500153
vt 2.774976 -2.99141
vt 2.197724 -2.501027
vt 3.078811 -1.695095
vt 3.317587 -2.626217
vt 3.178119 -2.984913
vt -4.324586 -4.306007
vt -5.109136 -3.501096
vt -4.296035 0.04945111
vt -4.246445 2.36328
vt -5.119578 0.049451
vt -4.632335 2.603317
vt -5.109136 -0.6020677
vt -4.304685 -0.4257659
vt 4.725772 -1.780048
vt 3.780643 -1.352767
vt 3.402468 -0.8047219
vt 4.292494 -0.6793616
vt 4.596687 -1.136189
vt 3.950774 -0.9060719
vt 3.400168 1.517018
vt 2.957398 -0.9060719
vt 2.946325 1.60981
vt 0.382991 -3.926862
vt -0.1991737 -4.731773
vt 0.7880668 -4.513768
vt -0.1949676 -4.38036
vt -0.593284 -4.116
vt -0.5245659 -3.061121
vt -0.2737103 -4.294982
vt -0.4422128 2.086226
vt -0.8726052 -0.02163822
vt 0.3451462 1.977278
vt 0.3299517 -0.0527775
vt 1.23185 -1.820716
vt 0.868194 -1.044189
vt 1.487953 -0.5492616
vt 2.140816 -0.6207135
vt 1.94556 -1.925728
vt -0.6411598 0.5975202
vt 0.382991 -0.04363836

vn 0.6212286 -0.2497423 0.7427677
vn 0.4501194 -0.7437303 0.4942245
vn 0.2143684 0.763742 0.6088877
vn 0.3744011 0.5311596 0.7600614
vn -0.02070525 -0.5918878 -0.8057544
vn 0.4551003 -0.1621574 -0.8755504
vn 0.3011096 0.4205353 -0.8558522
vn 0.02903358 0.4247918 -0.9048254
vn -0.2528596 -0.7197709 0.646523
vn 0.09388413 0.5380223 0.837686
vn -0.6371554 -0.576676 0.5113491
vn -0.3533264 0.3697554 0.8593262
vn -0.08011534 0.5227742 -0.8486982
vn 0.1389055 -0.7582829 -0.6369555
vn -0.5377774 0.5972707 -0.595032
vn 0.1500047 -0.8164768 -0.557552
vn -0.7904502 -0.4260618 0.4400682
vn -0.7610745 -0.6485654 -0.01133751
vn -0.7450577 0.6662086 -0.03248408
vn -0.7824196 0.4929728 0.3805224
vn 0.7767485 -0.628242 -0.04442799
vn 0.8447583 -0.2775805 0.4575286
vn 0.8077391 0.4954142 0.3195659
vn 0.8681986 0.4943749 -0.04271545
vn -0.05358611 0.9475411 0.3151102
vn 0.3282747 0.9147615 0.2354721
vn 3.477859E-06 -1 4.562164E-08
vn -0.6279658 -0.7537571 0.1936732
vn -0.763423 0.6432487 -0.05844988
vn -0.6191403 -0.7381958 0.2678289
vn -0.8805671 0.4734873 -0.02028195
vn 0.8709545 0.481038 0.1002033
vn 0.786101 -0.618068 0.006097869
vn 0.7958444 0.4459167 -0.4096216
vn 0.8916362 -0.2558097 -0.373559
vn 0.3354722 0.8847747 -0.3234686
vn -0.1613933 0.9729049 -0.1655543

usemtl ProBuilder_Default_URP
f 39/86/37 13/85/13 15/89/15
f 39/86/37 15/89/15 32/88/31
f 39/86/37 32/88/31 30/87/29
f 29/76/28 31/91/30 40/78/27
f 31/91/30 16/90/16 40/78/27
f 16/90/16 14/79/14 40/78/27
f 11/97/11 28/39/27 9/40/9
f 17/96/17 28/39/27 11/97/11
f 18/77/18 28/39/27 17/96/17
f 25/99/25 19/98/19 20/102/20
f 12/101/12 25/99/25 20/102/20
f 10/100/10 25/99/25 12/101/12
f 36/107/35 34/62/33 38/63/27
f 6/108/6 36/107/35 38/63/27
f 38/63/27 5/80/5 6/108/6
f 7/110/7 8/109/8 37/113/36
f 37/113/36 35/111/34 7/110/7
f 37/113/36 33/112/32 35/111/34
f 4/120/4 26/122/26 3/121/3
f 26/122/26 23/119/23 24/118/24
f 4/120/4 23/119/23 26/122/26
f 27/38/27 22/124/22 1/123/1
f 21/61/21 22/124/22 27/38/27
f 2/37/2 27/38/27 1/123/1
f 3/3/3 2/2/2 1/1/1
f 1/1/1 4/4/4 3/3/3
f 8/8/8 7/7/7 6/6/6
f 6/6/6 5/5/5 8/8/8
f 9/10/9 2/9/2 3/12/3
f 3/12/3 10/11/10 9/10/9
f 12/15/12 11/14/11 9/13/9
f 9/13/9 10/16/10 12/15/12
f 5/17/5 14/20/14 13/19/13
f 13/19/13 8/18/8 5/17/5
f 15/22/15 13/21/13 14/24/14
f 14/24/14 16/23/16 15/22/15
f 19/27/19 18/26/18 17/25/17
f 17/25/17 20/28/20 19/27/19
f 21/29/21 24/32/24 23/31/23
f 23/31/23 22/30/22 21/29/21
f 26/35/26 25/34/25 10/33/10
f 10/33/10 3/36/3 26/35/26
f 28/39/27 27/38/27 2/37/2
f 2/37/2 9/40/9 28/39/27
f 29/42/28 18/41/18 19/44/19
f 19/44/19 30/43/29 29/42/28
f 32/47/31 31/46/30 29/45/28
f 29/45/28 30/48/29 32/47/31
f 21/52/21 34/51/33 33/50/32
f 33/50/32 24/49/24 21/52/21
f 35/54/34 33/53/32 34/56/33
f 34/56/33 36/55/35 35/54/34
f 33/57/32 37/60/36 26/59/26
f 26/59/26 24/58/24 33/57/32
f 38/63/27 34/62/33 21/61/21
f 21/61/21 27/38/27 38/63/27
f 25/65/25 39/64/37 30/67/29
f 30/67/29 19/66/19 25/65/25
f 37/70/36 8/69/8 13/68/13
f 13/68/13 39/71/37 37/70/36
f 26/73/26 37/72/36 39/75/37
f 39/75/37 25/74/25 26/73/26
f 28/39/27 18/77/18 29/76/28
f 29/76/28 40/78/27 28/39/27
f 38/63/27 40/78/27 14/79/14
f 14/79/14 5/80/5 38/63/27
f 27/38/27 28/39/27 40/78/27
f 40/78/27 38/63/27 27/38/27
f 32/83/31 15/81/15 16/82/16
f 16/82/16 31/84/30 32/83/31
f 17/94/17 11/92/11 12/93/12
f 12/93/12 20/95/20 17/94/17
f 36/105/35 6/103/6 7/104/7
f 7/104/7 35/106/34 36/105/35
f 23/116/23 4/114/4 1/115/1
f 1/115/1 22/117/22 23/116/23

